<?xml version="1.0" encoding="utf-8"?>
<!-- Generator: Adobe Illustrator 27.5.0, SVG Export Plug-In . SVG Version: 6.00 Build 0)  -->
<svg version="1.1" id="Layer_1" xmlns="http://www.w3.org/2000/svg" xmlns:xlink="http://www.w3.org/1999/xlink" x="0px" y="0px"
	 viewBox="0 0 74.48 49.61" style="enable-background:new 0 0 74.48 49.61;" xml:space="preserve">
<style type="text/css">
	.st0{fill:#FFFFFF;}
	.st1{fill:#0B60AE;}
</style>
<g>
	<g>
		<path class="st1" d="M26.02,32.92h-4.64V21.28l-3.03,11.64h-3.17l-3.12-11.64v11.64H8.33V16.64h6.52l2.37,8.64l2.25-8.64h6.57
			V32.92z"/>
		<path class="st1" d="M28.88,16.64h6.3c2.68,0,4.52,0.71,6,2.29c1.42,1.51,2.17,3.54,2.17,5.81c0,4.86-3.2,8.18-7.86,8.18h-6.61
			V16.64z M35.18,29.19c1.73,0,2.95-1.83,2.95-4.42c0-1.17-0.24-2.25-0.73-3.1c-0.51-0.9-1.24-1.34-2.22-1.34h-1.29v8.86H35.18z"/>
		<path class="st1" d="M50.53,32.92h-5.05V16.64h6.93c2.51,0,3.91,0.37,5.1,1.29c1.12,0.9,1.81,2.34,1.81,3.91
			c0,3.1-2.37,5.17-5.96,5.17h-2.83V32.92z M52.14,23.53c1.51,0,2.2-0.51,2.2-1.61c0-1.03-0.68-1.54-2.05-1.54h-1.81v3.15H52.14z"/>
		<path class="st1" d="M65.98,32.92h-5V16.64h5V32.92z"/>
	</g>
	<g>
		<g>
			<polygon class="st1" points="1.93,36.32 0.71,36.32 0.71,11.51 19.5,0.71 38.42,11.48 37.27,12.22 19.5,2.11 1.93,12.22 			"/>
		</g>
		<g>
			<polygon class="st1" points="3.74,14.2 3.75,12.79 18.86,4.09 18.84,5.57 			"/>
		</g>
	</g>
	<g>
		<g>
			<polygon class="st1" points="72.55,13.29 73.77,13.29 73.77,38.09 54.98,48.9 36.06,38.13 37.21,37.39 54.98,47.49 72.55,37.39 
							"/>
		</g>
		<g>
			<polygon class="st1" points="70.74,35.4 70.73,36.81 55.62,45.51 55.64,44.04 			"/>
		</g>
	</g>
</g>
</svg>
